#!OML:ASF H:\Punching\Project 1\Capture day 1\Session 1\female.ASF
:FULLY-SPECIFIED
:DEGREES
1531
root -0.766582 15.6548 5.79562 13.7127 1.53063 1.36334
lowerback -3.46546 -1.37227 1.88312
upperback -6.1945 -1.82766 0.550044
thorax -4.49515 -0.985557 -0.474295
lowerneck -10.798 4.83658 10.2792
upperneck 22.2838 6.07834 -6.00582
head 9.28938 3.09355 -3.09363
rclavicle -3.88096e-015 -3.57812e-015
rhumerus -48.7387 -10.8384 -74.0509
rradius 29.8771
rwrist -9.46761
rhand -0.800732 -16.7653
rfingers 7.12502
rthumb 24.8232 -45.1741
lclavicle -3.88096e-015 -3.57812e-015
lhumerus -61.3454 6.86538 83.5379
lradius 39.5325
lwrist 10.5647
lhand 0.093278 18.2413
lfingers 7.12502
lthumb 25.6797 46.5292
rfemur -17.0031 0.768561 21.8745
rtibia 30.4104
rfoot -24.2545 -26.3397
rtoes 4.12629
lfemur -12.6043 -9.91974 -13.4002
ltibia 22.4741
lfoot -18.1921 19.1002
ltoes -6.46647
1532
root -0.745022 15.6506 5.78012 13.707 1.88755 1.32312
lowerback -3.53624 -1.36617 1.91043
upperback -6.20445 -1.81814 0.619123
thorax -4.46411 -0.979835 -0.420101
lowerneck -10.748 4.75155 10.2312
upperneck 22.1262 5.96933 -6.00953
head 9.21314 3.03832 -3.09975
rclavicle 2.25822e-014 -1.98785e-015
rhumerus -49.0196 -10.7179 -74.167
rradius 30.0059
rwrist -9.43117
rhand 1.30601 -17.49
rfingers 7.12502
rthumb 26.8407 -45.6049
lclavicle 2.25822e-014 -1.98785e-015
lhumerus -61.5632 6.3484 84.6717
lradius 39.7747
lwrist 10.2029
lhand 1.47943 17.9927
lfingers 7.12502
lthumb 27.0066 46.082
rfemur -17.0405 0.737511 21.8808
rtibia 30.494
rfoot -24.3561 -26.5572
rtoes 4.30137
lfemur -12.269 -11.0116 -13.3897
ltibia 21.5664
lfoot -18.4295 20.0103
ltoes -5.24066
1533
root -0.722516 15.6465 5.76547 13.7053 2.23538 1.28713
lowerback -3.61929 -1.35618 1.94045
upperback -6.21232 -1.80397 0.684597
thorax -4.4241 -0.971939 -0.371526
lowerneck -10.6813 4.66505 10.1813
upperneck 21.9493 5.8608 -6.01836
head 9.12743 2.98272 -3.10719
rclavicle 1.17034e-014 -1.98785e-015
rhumerus -49.3129 -10.5026 -74.3569
rradius 30.2827
rwrist -9.60913
rhand 2.7522 -17.8357
rfingers 7.12502
rthumb 28.2237 -45.7303
lclavicle 1.17034e-014 -1.98785e-015
lhumerus -61.78 5.94806 85.5902
lradius 40.0635
lwrist 9.66471
lhand 2.51288 17.8327
lfingers 7.12502
lthumb 27.995 45.7649
rfemur -17.0823 0.699742 21.8775
rtibia 30.5811
rfoot -24.4567 -26.7674
rtoes 4.46382
lfemur -11.9992 -12.0678 -13.406
ltibia 20.8379
lfoot -18.6929 20.9638
ltoes -4.11687
1534
root -0.69932 15.6431 5.75161 13.7134 2.57075 1.24658
lowerback -3.72146 -1.34228 1.97879
upperback -6.21659 -1.7853 0.749566
thorax -4.36978 -0.962071 -0.328701
lowerneck -10.6099 4.57929 10.1294
upperneck 21.7606 5.75471 -6.03149
head 9.03734 2.92759 -3.11529
rclavicle -1.34646e-014 7.95139e-015
rhumerus -49.5966 -10.2131 -74.604
rradius 30.6758
rwrist -9.97963
rhand 3.41911 -17.8235
rfingers 7.12502
rthumb 28.861 -45.6111
lclavicle -1.34646e-014 7.95139e-015
lhumerus -61.9704 5.7118 86.2237
lradius 40.3617
lwrist 9.01423
lhand 3.17222 17.7705
lfingers 7.12502
lthumb 28.6251 45.5981
rfemur -17.1327 0.655379 21.875
rtibia 30.6659
rfoot -24.555 -26.9645
rtoes 4.62164
lfemur -11.8017 -13.1016 -13.4311
ltibia 20.2789
lfoot -18.9907 21.9331
ltoes -3.04574
1535
root -0.6756 15.6399 5.73827 13.7337 2.8977 1.20047
lowerback -3.83502 -1.32599 2.02346
upperback -6.2231 -1.76391 0.814507
thorax -4.31163 -0.951113 -0.289663
lowerneck -10.5319 4.49334 10.0799
upperneck 21.5632 5.64867 -6.04703
head 8.94348 2.87243 -3.12444
rclavicle -1.35733e-014 5.96354e-015
rhumerus -49.8623 -9.88426 -74.8732
rradius 31.1669
rwrist -10.4065
rhand 3.43598 -17.6525
rfingers 7.12502
rthumb 28.8771 -45.4374
lclavicle -1.35733e-014 5.96354e-015
lhumerus -62.1331 5.64058 86.5584
lradius 40.6575
lwrist 8.37274
lhand 3.50802 17.7696
lfingers 7.12502
lthumb 28.9459 45.5427
rfemur -17.1953 0.609334 21.8761
rtibia 30.7475
rfoot -24.6474 -27.1575
rtoes 4.772
lfemur -11.6833 -14.1445 -13.4514
ltibia 19.864
lfoot -19.2954 22.9207
ltoes -2.11856
1536
root -0.651398 15.6369 5.72523 13.7701 3.21826 1.1531
lowerback -3.9612 -1.30903 2.07122
upperback -6.23282 -1.74223 0.876961
thorax -4.24998 -0.940194 -0.255128
lowerneck -10.4539 4.40799 10.0344
upperneck 21.3643 5.54246 -6.06224
head 8.84962 2.81749 -3.13396
rclavicle 6.85497e-015 -6.36111e-015
rhumerus -50.087 -9.57268 -75.1102
rradius 31.6757
rwrist -10.7699
rhand 3.0039 -17.3827
rfingers 7.12502
rthumb 28.4643 -45.2373
lclavicle 6.85497e-015 -6.36111e-015
lhumerus -62.2527 5.69928 86.6327
lradius 40.9396
lwrist 7.88603
lhand 3.61751 17.8172
lfingers 7.12502
lthumb 29.0505 45.5722
rfemur -17.2751 0.555038 21.8764
rtibia 30.826
rfoot -24.732 -27.3426
rtoes 4.91349
lfemur -11.6437 -15.2137 -13.4595
ltibia 19.5648
lfoot -19.5899 23.9289
ltoes -1.33638
1537
root -0.626912 15.6342 5.71232 13.8227 3.53611 1.10701
lowerback -4.09448 -1.2943 2.11833
upperback -6.25075 -1.72384 0.937607
thorax -4.19315 -0.931009 -0.222061
lowerneck -10.372 4.32345 9.99103
upperneck 21.1718 5.43694 -6.07466
head 8.75765 2.76337 -3.1427
rclavicle -2.5755e-014 1.51076e-014
rhumerus -50.2606 -9.30031 -75.2819
rradius 32.1464
rwrist -10.9479
rhand 2.38149 -17.1577
rfingers 7.12502
rthumb 27.8694 -45.1103
lclavicle -2.5755e-014 1.51076e-014
lhumerus -62.3257 5.83207 86.522
lradius 41.2094
lwrist 7.68999
lhand 3.65724 17.9466
lfingers 7.12502
lthumb 29.0884 45.6951
rfemur -17.3721 0.48667 21.8747
rtibia 30.9008
rfoot -24.8087 -27.5181
rtoes 5.04257
lfemur -11.678 -16.3032 -13.4471
ltibia 19.3572
lfoot -19.8646 24.9247
ltoes -0.696128
1538
root -0.602536 15.6322 5.69917 13.8933 3.85515 1.06647
lowerback -4.23162 -1.28447 2.15818
upperback -6.27969 -1.71208 0.995728
thorax -4.14577 -0.925009 -0.18739
lowerneck -10.2822 4.23997 9.95342
upperneck 20.9878 5.33276 -6.08665
head 8.66776 2.71054 -3.15212
rclavicle -3.01345e-014 9.93923e-015
rhumerus -50.3738 -9.08761 -75.3655
rradius 32.5263
rwrist -10.8817
rhand 1.82649 -17.006
rfingers 7.12502
rthumb 27.3386 -45.0434
lclavicle -3.01345e-014 9.93923e-015
lhumerus -62.3548 5.98111 86.3059
lradius 41.4732
lwrist 7.85217
lhand 3.71923 18.1628
lfingers 7.12502
lthumb 29.1476 45.9011
rfemur -17.4861 0.410319 21.8682
rtibia 30.9667
rfoot -24.8755 -27.6904
rtoes 5.16749
lfemur -11.7809 -17.351 -13.4113
ltibia 19.2237
lfoot -20.1018 25.826
ltoes -0.213832
1539
root -0.578335 15.6312 5.68568 13.9708 4.17856 1.02924
lowerback -4.35819 -1.27764 2.19737
upperback -6.31716 -1.70416 1.04881
thorax -4.11356 -0.921164 -0.157074
lowerneck -10.1961 4.15569 9.91801
upperneck 20.824 5.22613 -6.09278
head 8.58541 2.65736 -3.16013
rclavicle 3.34207e-015 1.59028e-015
rhumerus -50.4218 -8.96419 -75.3397
rradius 32.7799
rwrist -10.5562
rhand 1.48328 -16.922
rfingers 7.12502
rthumb 27.0103 -45.0108
lclavicle 3.34207e-015 1.59028e-015
lhumerus -62.3373 6.09419 86.0473
lradius 41.7287
lwrist 8.35977
lhand 3.82519 18.5215
lfingers 7.12502
lthumb 29.2488 46.2422
rfemur -17.6003 0.322658 21.8604
rtibia 31.0156
rfoot -24.9274 -27.8607
rtoes 5.28153
lfemur -11.9313 -18.2823 -13.3511
ltibia 19.1508
lfoot -20.2972 26.5388
ltoes 0.129101
1540
root -0.554618 15.6316 5.67173 14.0456 4.50709 0.99838
lowerback -4.46522 -1.27491 2.2311
upperback -6.35941 -1.70125 1.09532
thorax -4.09754 -0.919877 -0.129887
lowerneck -10.1113 4.06995 9.88964
upperneck 20.6773 5.11629 -6.09729
head 8.50925 2.60341 -3.16909
rclavicle -1.10698e-014 1.03368e-014
rhumerus -50.4053 -8.92559 -75.2103
rradius 32.906
rwrist -10.0439
rhand 1.40778 -16.8904
rfingers 7.12502
rthumb 26.9381 -44.9904
lclavicle -1.10698e-014 1.03368e-014
lhumerus -62.2696 6.16468 85.755
lradius 41.9593
lwrist 9.10119
lhand 3.99721 19.0453
lfingers 7.12502
lthumb 29.413 46.7373
rfemur -17.7009 0.229455 21.8489
rtibia 31.0417
rfoot -24.9674 -28.0314
rtoes 5.40096
lfemur -12.1111 -19.0156 -13.275
ltibia 19.124
lfoot -20.4369 26.9789
ltoes 0.342389
1541
root -0.531585 15.6333 5.65736 14.1084 4.83428 0.975098
lowerback -4.54282 -1.27469 2.25472
upperback -6.40315 -1.70085 1.13601
thorax -4.09953 -0.919667 -0.102255
lowerneck -10.0283 3.98162 9.87092
upperneck 20.5485 5.00269 -6.10694
head 8.43973 2.54801 -3.18182
rclavicle 5.84551e-015 -2.78299e-015
rhumerus -50.3283 -8.94852 -75.0079
rradius 32.8923
rwrist -9.56041
rhand 1.42036 -16.7243
rfingers 7.12502
rthumb 26.9501 -44.8224
lclavicle 5.84551e-015 -2.78299e-015
lhumerus -62.1613 6.20576 85.4249
lradius 42.1566
lwrist 9.92568
lhand 4.22215 19.6671
lfingers 7.12502
lthumb 29.6278 47.3211
rfemur -17.7786 0.141461 21.8317
rtibia 31.0444
rfoot -24.9942 -28.2088
rtoes 5.52513
lfemur -12.3031 -19.5036 -13.193
ltibia 19.1266
lfoot -20.4996 27.1067
ltoes 0.440703
1542
root -0.50915 15.6359 5.64259 14.1508 5.15846 0.959946
lowerback -4.58654 -1.2757 2.2705
upperback -6.44215 -1.70126 1.16916
thorax -4.11557 -0.919769 -0.0772281
lowerneck -9.96068 3.89268 9.85605
upperneck 20.4449 4.88676 -6.11574
head 8.38161 2.49178 -3.19504
rclavicle -5.65915e-015 7.95139e-016
rhumerus -50.1902 -9.05012 -74.7202
rradius 32.7914
rwrist -9.08352
rhand 1.63263 -16.6778
rfingers 7.12502
rthumb 27.1532 -44.7444
lclavicle -5.65915e-015 7.95139e-016
lhumerus -62.0124 6.23932 85.0366
lradius 42.3108
lwrist 10.6628
lhand 4.49944 20.2885
lfingers 7.12502
lthumb 29.8924 47.8952
rfemur -17.8265 0.0563851 21.8077
rtibia 31.0311
rfoot -25.0146 -28.3884
rtoes 5.65653
lfemur -12.4898 -19.7231 -13.1173
ltibia 19.1375
lfoot -20.45 26.9203
ltoes 0.394984
